Coordinates
version=1
nRows=14
nColumns=42
inDegrees=yes

Units are S.I. units (second, meters, Newtons, ...)
If the header above contains a line with 'inDegrees', this indicates whether rotational values are in degrees (yes) or radians (no).

endheader
time	pelvis_tilt	pelvis_list	pelvis_rotation	pelvis_tx	pelvis_ty	pelvis_tz	hip_flexion_r	hip_adduction_r	hip_rotation_r	knee_angle_r	knee_adduction_r	knee_angle_r_beta	ankle_angle_r	subtalar_angle_r	mtp_angle_r	hip_flexion_l	hip_adduction_l	hip_rotation_l	knee_angle_l	knee_adduction_l	knee_angle_l_beta	ankle_angle_l	subtalar_angle_l	mtp_angle_l	lumbar_extension	lumbar_bending	lumbar_rotation	arm_flex_r	arm_add_r	arm_rot_r	elbow_flex_r	pro_sup_r	wrist_flex_r	wrist_dev_r	arm_flex_l	arm_add_l	arm_rot_l	elbow_flex_l	pro_sup_l	wrist_flex_l	wrist_dev_l
      8.50000000	      7.42852604	     -1.12089924	     -3.96280434	      0.97744799	      0.93859483	     -0.14635199	     10.78021953	     -9.05682317	    -25.07843572	     27.33412348	      5.30459933	      0.47707045	      6.29187478	     15.18911781	     -7.50023138	     -4.91923063	     -1.06015930	    -18.73070933	     25.13176815	      2.95775094	      0.43863210	     20.57291274	     -0.70277436	     -7.50023138	    -18.04123165	     -1.52432398	     -2.39056420	      5.89188049	     -7.76927617	      1.21190381	     37.65896201	     90.00000001	      0.00000000	      0.00000000	    -11.52276164	    -12.32181661	      0.01704031	     48.97768624	     90.00000001	      0.00000000	      0.00000000
      8.51000000	      7.45708248	     -0.97075562	     -3.72755496	      0.98056988	      0.93809431	     -0.14572202	     10.70400722	     -8.99675293	    -24.90265989	     27.52834844	      5.03800401	      0.48046032	      6.54865558	     14.83089398	     -7.50022998	     -5.09149833	     -0.91635166	    -18.55716063	     25.18682156	      2.82860596	      0.43959296	     20.66613408	     -0.64200467	     -7.50022998	    -17.98330051	     -1.52491736	     -2.42313902	      5.75984379	     -7.82598400	      1.10424277	     37.48928238	     90.00000001	      0.00000000	      0.00000000	    -11.30383512	    -12.31665639	      0.06416799	     48.96748384	     90.00000001	      0.00000000	      0.00000000
      8.52000000	      7.48214008	     -0.81849521	     -3.46391765	      0.98382369	      0.93761758	     -0.14513945	     10.65416841	     -8.96604601	    -24.78325937	     27.83163358	      4.74720678	      0.48575364	      7.09268434	     14.21905277	     -7.50022829	     -5.32032910	     -0.76739803	    -18.32359077	     25.13511186	      2.73295564	      0.43869046	     20.84828653	     -0.56154801	     -7.50022829	    -17.91029054	     -1.50540001	     -2.51607822	      5.65359460	     -7.84637740	      0.94079168	     37.26248751	     90.00000001	      0.00000000	      0.00000000	    -11.09108443	    -12.30202409	      0.13873292	     48.85054235	     90.00000001	      0.00000000	      0.00000000
      8.53000000	      7.33775086	     -0.53929402	     -3.27299153	      0.98696497	      0.93687999	     -0.14446194	     10.84080987	     -9.14058237	    -24.13605862	     28.23112676	      4.82694623	      0.49272611	      7.51257786	     12.76070674	     -7.50021997	     -5.36485278	     -0.46047075	    -18.03109393	     25.02866655	      2.67677997	      0.43683264	     20.98001401	     -0.57777074	     -7.50021997	    -17.64414709	     -1.63764008	     -2.55689403	      5.59489722	     -7.73039067	      0.30603498	     36.88905219	     90.00000001	      0.00000000	      0.00000000	    -10.89472050	    -12.31856018	      0.28554609	     48.75038482	     90.00000001	      0.00000000	      0.00000000
      8.54000000	      7.37612633	     -0.48292735	     -3.05002957	      0.99022068	      0.93652849	     -0.14372604	     10.75019523	     -9.02386910	    -23.98360084	     28.47484148	      4.55707528	      0.49697974	      7.80129910	     12.52753345	     -7.50021902	     -5.60851803	     -0.42408756	    -17.86437512	     25.02528762	      2.55386465	      0.43677367	     21.05552301	     -0.55967015	     -7.50021902	    -17.60694787	     -1.53131104	     -2.58020692	      5.51670808	     -7.80834191	      0.26798032	     36.75760648	     90.00000001	      0.00000000	      0.00000000	    -10.70494308	    -12.25949945	      0.29186948	     48.72648828	     90.00000001	      0.00000000	      0.00000000
      8.55000000	      7.41850680	     -0.41164553	     -2.83790512	      0.99350400	      0.93619255	     -0.14299643	     10.72373697	     -8.93358612	    -23.84853367	     28.87826265	      4.25592067	      0.50402077	      8.41003148	     12.03240251	     -7.50021757	     -5.91413905	     -0.35904547	    -17.61303177	     24.90364740	      2.49201200	      0.43465064	     21.22633162	     -0.50010454	     -7.50021757	    -17.57073075	     -1.42332869	     -2.62893250	      5.45978171	     -7.86804428	      0.17963111	     36.55843974	     90.00000001	      0.00000000	      0.00000000	    -10.49719489	    -12.18603945	      0.29375789	     48.60709938	     90.00000001	      0.00000000	      0.00000000
      8.56000000	      7.37937202	     -0.27418718	     -2.63493599	      0.99688898	      0.93575751	     -0.14217713	     10.76527005	     -8.96926854	    -23.61843859	     29.29117555	      4.09031954	      0.51122746	      8.97755859	     11.46007988	     -7.50021554	     -6.16480544	     -0.26981338	    -17.39129270	     24.72379253	      2.51191094	      0.43151158	     21.38477057	     -0.43273643	     -7.50021554	    -17.42877771	     -1.41725309	     -2.68420969	      5.39607486	     -7.89972613	      0.01760308	     36.33712054	     90.00000001	      0.00000000	      0.00000000	    -10.33625850	    -12.11238080	      0.26979616	     48.50152132	     90.00000001	      0.00000000	      0.00000000
      8.57000000	      7.31282937	     -0.12737038	     -2.48087933	      1.00021817	      0.93533024	     -0.14132646	     10.84979825	     -9.03201420	    -23.28744334	     29.71818471	      4.00028683	      0.51868017	      9.44010722	     10.83517935	     -7.50021272	     -6.38199546	     -0.13962706	    -17.19824493	     24.54666410	      2.49364682	      0.42842011	     21.49394811	     -0.39014354	     -7.50021272	    -17.26399229	     -1.41680264	     -2.71744910	      5.36613385	     -7.90800226	     -0.21916669	     36.10661628	     90.00000001	      0.00000000	      0.00000000	    -10.19280618	    -12.02805308	      0.21972632	     48.44480724	     90.00000001	      0.00000000	      0.00000000
      8.58000000	      7.28505707	     -0.11355536	     -2.27251870	      1.00346307	      0.93500841	     -0.14053611	     10.81536927	     -8.94981957	    -23.06442794	     30.00205225	      3.89738767	      0.52363459	      9.59258567	     10.69686642	     -7.50021208	     -6.58574140	     -0.16564863	    -17.10100184	     24.48728418	      2.37234077	      0.42738373	     21.52566165	     -0.37003351	     -7.50021208	    -17.17379515	     -1.24941625	     -2.76456451	      5.32931028	     -8.00247807	     -0.29194821	     36.00173028	     90.00000001	      0.00000000	      0.00000000	    -10.05596977	    -11.94151476	      0.22021006	     48.47946928	     90.00000001	      0.00000000	      0.00000000
      8.59000000	      7.20020906	     -0.03336624	     -2.16431641	      1.00674735	      0.93465488	     -0.13944858	     10.76205651	     -8.94686817	    -22.99324097	     30.07723689	      3.83874839	      0.52494681	      9.63018313	     10.66774751	     -7.50021198	     -6.72685888	     -0.17730905	    -17.09621977	     24.48925271	      2.35686359	      0.42741809	     21.53594599	     -0.36704382	     -7.50021198	    -17.00900958	     -1.20574559	     -2.79247676	      5.33998571	     -8.04364183	     -0.30975954	     35.98522998	     90.00000001	      0.00000000	      0.00000000	     -9.98079699	    -11.90560440	      0.22333290	     48.50907918	     90.00000001	      0.00000000	      0.00000000
      8.60000000	      7.18030493	     -0.00138087	     -2.05751749	      1.01009694	      0.93428585	     -0.13843304	     10.92638679	     -8.91588084	    -22.85547620	     30.88103918	      3.61819647	      0.53897581	     10.62926021	      9.90789373	     -7.50020994	     -7.15221787	     -0.20841075	    -16.92794797	     24.04225332	      2.46953832	      0.41961648	     21.80595370	     -0.16236017	     -7.50020994	    -16.92194939	     -1.08367370	     -2.77538561	      5.39454706	     -8.08892387	     -0.56085196	     35.65169612	     90.00000001	      0.00000000	      0.00000000	     -9.84713082	    -11.75579152	      0.13339056	     48.40665475	     90.00000001	      0.00000000	      0.00000000
      8.61000000	      7.08575140	      0.03531040	     -1.90512002	      1.01329000	      0.93395165	     -0.13749472	     10.90884342	     -8.88915241	    -22.72077481	     31.07253754	      3.58505675	      0.54231809	     10.72139696	      9.84680466	     -7.50020953	     -7.29618747	     -0.24799128	    -16.91165550	     23.97099225	      2.40275904	      0.41837274	     21.82550959	     -0.13173552	     -7.50020953	    -16.77672107	     -0.96469174	     -2.83468809	      5.40556070	     -8.17410958	     -0.63023126	     35.59321213	     90.00000001	      0.00000000	      0.00000000	     -9.77180337	    -11.66410828	      0.13668403	     48.45567130	     90.00000001	      0.00000000	      0.00000000
      8.62000000	      6.98512419	      0.00056657	     -1.80337921	      1.01650849	      0.93358046	     -0.13653380	     10.94915557	     -8.83179551	    -22.67368799	     31.44132700	      3.57967390	      0.54875468	     11.01389425	      9.68302685	     -7.50020888	     -7.50385045	     -0.34247786	    -16.91414694	     23.77283735	      2.36205638	      0.41491428	     21.89658753	     -0.05935785	     -7.50020888	    -16.62866031	     -0.75455576	     -2.87052608	      5.47382883	     -8.25707991	     -0.74022240	     35.49008706	     90.00000001	      0.00000000	      0.00000000	     -9.71846589	    -11.55009084	      0.12620006	     48.49928044	     90.00000001	      0.00000000	      0.00000000
      8.63000000	      6.85166285	      0.13160996	     -1.82405167	      1.01974188	      0.93309212	     -0.13514306	     11.13444327	     -8.92565663	    -22.69635659	     31.99090946	      3.42755281	      0.55834670	     11.74420230	      9.35095218	     -7.50020638	     -7.75554697	     -0.29832173	    -16.91840873	     23.44211391	      2.47684471	      0.40914207	     22.08920855	      0.28321836	     -7.50020638	    -16.43056656	     -0.80833328	     -2.84254773	      5.63943637	     -8.20315556	     -1.07571019	     35.21491024	     90.00000001	      0.00000000	      0.00000000	     -9.71474384	    -11.47929035	     -0.00635184	     48.56610696	     90.00000001	      0.00000000	      0.00000000
